<svg width="405" height="265" viewBox="0 0 405 265" fill="none" xmlns="http://www.w3.org/2000/svg">
<path fill-rule="evenodd" clip-rule="evenodd" d="M256 179.755C282.003 179.487 303 158.324 303 132.258C303 108.205 285.123 88.3283 261.931 85.1894C254.193 63.0903 233.153 47.2411 208.413 47.2411C201.665 47.2411 195.193 48.4199 189.191 50.5828C186.145 22.146 162.072 0 132.827 0C101.518 0 76.1376 25.3807 76.1376 56.6893C76.1376 60.1211 76.4425 63.4816 77.0267 66.7454C73.6162 66.097 70.0973 65.7578 66.5 65.7578C35.2959 65.7578 10 91.2776 10 122.758C10 154.07 35.0261 179.485 66 179.756V179.758H66.5H255.5H256V179.755Z" fill="#B0B0B0"/>
<path fill-rule="evenodd" clip-rule="evenodd" d="M357 179.755C383.003 179.487 404 158.324 404 132.258C404 108.205 386.123 88.3283 362.931 85.1894C355.193 63.0903 334.153 47.2411 309.413 47.2411C302.665 47.2411 296.193 48.4199 290.191 50.5828C287.145 22.146 263.072 0 233.827 0C202.518 0 177.138 25.3807 177.138 56.6893C177.138 60.1211 177.442 63.4816 178.027 66.7454C174.616 66.097 171.097 65.7578 167.5 65.7578C136.296 65.7578 111 91.2776 111 122.758C111 154.07 136.026 179.485 167 179.756V179.758H167.5H356.5H357V179.755Z" fill="#DCDCDC"/>
<path fill-rule="evenodd" clip-rule="evenodd" d="M246 264.997C272.003 264.729 293 243.567 293 217.5C293 193.448 275.123 173.571 251.931 170.432C244.193 148.332 223.153 132.483 198.413 132.483C191.665 132.483 185.193 133.662 179.191 135.825C176.145 107.388 152.072 85.2422 122.827 85.2422C91.5182 85.2422 66.1376 110.623 66.1376 141.931C66.1376 145.363 66.4425 148.724 67.0267 151.988C63.6162 151.339 60.0973 151 56.5 151C25.2959 151 0 176.52 0 208C0 239.312 25.0261 264.727 56 264.998V265H56.5H245.5H246V264.997Z" fill="#E5E5E5"/>
</svg>
