<svg width="573" height="293" viewBox="0 0 573 293" fill="none" xmlns="http://www.w3.org/2000/svg">
<path fill-rule="evenodd" clip-rule="evenodd" d="M245.654 179.516H47.2411V178.732C20.4298 174.234 0 150.916 0 122.827C0 91.5182 25.3807 66.1375 56.6893 66.1375C60.2418 66.1375 63.718 66.4643 67.0894 67.0894C66.4643 63.718 66.1376 60.2418 66.1376 56.6893C66.1376 25.3807 91.5182 0 122.827 0C152.072 0 176.145 22.146 179.191 50.5828C185.193 48.4199 191.665 47.2411 198.413 47.2411C223.254 47.2411 244.364 63.2197 252.025 85.4599C275.102 88.5709 292.895 108.345 292.895 132.275C292.895 158.366 271.744 179.516 245.654 179.516Z" fill="white"/>
<path fill-rule="evenodd" clip-rule="evenodd" d="M525.654 292.758H327.241V291.974C300.43 287.476 280 264.159 280 236.069C280 204.76 305.381 179.38 336.689 179.38C340.242 179.38 343.718 179.706 347.089 180.332C346.464 176.96 346.138 173.484 346.138 169.931C346.138 138.623 371.518 113.242 402.827 113.242C432.072 113.242 456.145 135.388 459.191 163.825C465.193 161.662 471.665 160.483 478.413 160.483C503.254 160.483 524.364 176.462 532.025 198.702C555.102 201.813 572.895 221.587 572.895 245.517C572.895 271.608 551.744 292.758 525.654 292.758Z" fill="white"/>
</svg>
