<svg width="411" height="264" viewBox="0 0 411 264" fill="none" xmlns="http://www.w3.org/2000/svg">
<path fill-rule="evenodd" clip-rule="evenodd" d="M261.654 179.516H63.2411V178.732C36.4298 174.234 16 150.916 16 122.827C16 91.5182 41.3807 66.1375 72.6893 66.1375C76.2418 66.1375 79.718 66.4643 83.0894 67.0894C82.4643 63.718 82.1375 60.2418 82.1375 56.6893C82.1375 25.3807 107.518 0 138.827 0C168.072 0 192.145 22.146 195.191 50.5828C201.193 48.4199 207.665 47.2411 214.413 47.2411C239.254 47.2411 260.364 63.2197 268.025 85.4599C291.102 88.5709 308.895 108.345 308.895 132.275C308.895 158.366 287.744 179.516 261.654 179.516Z" fill="#B0B0B0"/>
<path fill-rule="evenodd" clip-rule="evenodd" d="M363.654 179.516H165.241V178.732C138.43 174.234 118 150.916 118 122.827C118 91.5182 143.381 66.1375 174.689 66.1375C178.242 66.1375 181.718 66.4643 185.089 67.0894C184.464 63.718 184.138 60.2418 184.138 56.6893C184.138 25.3807 209.518 0 240.827 0C270.072 0 294.145 22.146 297.191 50.5828C303.193 48.4199 309.665 47.2411 316.413 47.2411C341.254 47.2411 362.364 63.2197 370.025 85.4599C393.102 88.5709 410.895 108.345 410.895 132.275C410.895 158.366 389.744 179.516 363.654 179.516Z" fill="#DCDCDC"/>
<path fill-rule="evenodd" clip-rule="evenodd" d="M246 263.996C271.686 263.682 292.412 242.761 292.412 217C292.412 193.287 274.851 173.676 252.025 170.462C244.365 148.221 223.255 132.241 198.413 132.241C191.665 132.241 185.193 133.42 179.191 135.583C176.145 107.146 152.072 85 122.827 85C91.5182 85 66.1375 110.381 66.1375 141.689C66.1375 145.206 66.4577 148.648 67.0706 151.987C63.6463 151.339 60.1128 151 56.5 151C25.2959 151 0 176.296 0 207.5C0 238.537 25.0261 263.729 56 263.998V264H56.5H245.412H246V263.996Z" fill="#E5E5E5"/>
</svg>
