<svg width="264" height="219" viewBox="0 0 264 219" fill="none" xmlns="http://www.w3.org/2000/svg">
<g clip-path="url(#clip0)">
<path fill-rule="evenodd" clip-rule="evenodd" d="M261.654 134.516H63.2411V133.732C36.4298 129.234 16 105.916 16 77.8268C16 46.5182 41.3807 21.1375 72.6893 21.1375C76.2418 21.1375 79.718 21.4643 83.0894 22.0894C82.4643 18.718 82.1375 15.2418 82.1375 11.6893C82.1375 -19.6193 107.518 -45 138.827 -45C168.072 -45 192.145 -22.854 195.191 5.58284C201.193 3.41993 207.665 2.24111 214.413 2.24111C239.254 2.24111 260.364 18.2197 268.025 40.4599C291.102 43.5709 308.895 63.3451 308.895 87.275C308.895 113.366 287.744 134.516 261.654 134.516Z" fill="#B0B0B0"/>
<path fill-rule="evenodd" clip-rule="evenodd" d="M363.654 134.516H165.241V133.732C138.43 129.234 118 105.916 118 77.8268C118 46.5182 143.381 21.1375 174.689 21.1375C178.242 21.1375 181.718 21.4643 185.089 22.0894C184.464 18.718 184.138 15.2418 184.138 11.6893C184.138 -19.6193 209.518 -45 240.827 -45C270.072 -45 294.145 -22.854 297.191 5.58284C303.193 3.41993 309.665 2.24111 316.413 2.24111C341.254 2.24111 362.364 18.2197 370.025 40.4599C393.102 43.5709 410.895 63.3451 410.895 87.275C410.895 113.366 389.744 134.516 363.654 134.516Z" fill="#DCDCDC"/>
<path fill-rule="evenodd" clip-rule="evenodd" d="M246 218.996C271.686 218.682 292.412 197.761 292.412 172C292.412 148.287 274.851 128.676 252.025 125.462C244.365 103.221 223.255 87.2411 198.413 87.2411C191.665 87.2411 185.193 88.4199 179.191 90.5828C176.145 62.146 152.072 40 122.827 40C91.5182 40 66.1375 65.3807 66.1375 96.6893C66.1375 100.206 66.4577 103.648 67.0706 106.987C63.6463 106.339 60.1128 106 56.5 106C25.2959 106 0 131.296 0 162.5C0 193.537 25.0261 218.729 56 218.998V219H56.5H245.412H246V218.996Z" fill="#E5E5E5"/>
</g>
<defs>
<clipPath id="clip0">
<rect width="264" height="219" fill="white"/>
</clipPath>
</defs>
</svg>
