<svg width="147" height="90" viewBox="0 0 147 90" fill="none" xmlns="http://www.w3.org/2000/svg">
<path fill-rule="evenodd" clip-rule="evenodd" d="M28.421 89.9197C28.4432 89.9197 28.4654 89.9198 28.4875 89.9198C28.5097 89.9198 28.5319 89.9197 28.5541 89.9197L123.14 89.9197C136.209 89.9197 146.803 79.3254 146.803 66.2566C146.803 54.2701 137.891 44.3652 126.331 42.8069C122.494 31.6668 111.92 23.6631 99.4768 23.6631C96.097 23.6631 92.8551 24.2536 89.8487 25.337C88.3232 11.0929 76.265 0 61.6159 0C45.9334 0 33.2202 12.7132 33.2202 28.3957C33.2202 30.1752 33.3839 31.9164 33.697 33.6052C32.0082 33.2921 30.267 33.1284 28.4875 33.1284C12.805 33.1284 0.0918579 45.8416 0.0918579 61.5241C0.0918579 75.5941 10.3251 87.2741 23.7549 89.5272V89.9197H28.421Z" fill="#B9B9B9"/>
</svg>
