<svg width="584" height="219" viewBox="0 0 584 219" fill="none" xmlns="http://www.w3.org/2000/svg">
<g clip-path="url(#clip0)">
<path fill-rule="evenodd" clip-rule="evenodd" d="M537 219H349H348V218.991C316.981 218.458 292 193.146 292 162C292 130.52 317.52 105 349 105C352.368 105 355.667 105.292 358.874 105.852C358.39 102.87 358.138 99.8089 358.138 96.6893C358.138 65.3807 383.518 40 414.827 40C444.072 40 468.145 62.146 471.191 90.5828C477.193 88.4199 483.665 87.2411 490.413 87.2411C515.278 87.2411 536.405 103.251 544.047 125.525C566.661 128.925 584 148.438 584 172C584 197.957 562.957 219 537 219Z" fill="white"/>
<path fill-rule="evenodd" clip-rule="evenodd" d="M245 84H57H56V83.9914C24.9811 83.4578 0 58.1462 0 27C0 -4.48023 25.5198 -30 57 -30C60.3676 -30 63.667 -29.708 66.8742 -29.1478C66.3895 -32.1304 66.1376 -35.1911 66.1376 -38.3107C66.1376 -69.6193 91.5182 -95 122.827 -95C152.072 -95 176.145 -72.854 179.191 -44.4172C185.193 -46.5801 191.665 -47.7589 198.413 -47.7589C223.278 -47.7589 244.405 -31.7492 252.047 -9.47522C274.661 -6.07497 292 13.4377 292 37C292 62.9574 270.957 84 245 84Z" fill="white"/>
</g>
<defs>
<clipPath id="clip0">
<rect width="584" height="219" fill="white"/>
</clipPath>
</defs>
</svg>
