<svg width="147" height="91" viewBox="0 0 147 91" fill="none" xmlns="http://www.w3.org/2000/svg">
<path fill-rule="evenodd" clip-rule="evenodd" d="M123.232 90.4563C136.3 90.4563 146.895 79.862 146.895 66.7932C146.895 54.8067 137.982 44.9018 126.423 43.3435C122.586 32.2034 112.012 24.1998 99.5686 24.1998C96.1888 24.1998 92.9469 24.7902 89.9405 25.8736C88.415 11.6296 76.3568 0.536621 61.7077 0.536621C46.0252 0.536621 33.312 13.2498 33.312 28.9323C33.312 30.7117 33.4757 32.453 33.7888 34.1417C32.1 33.8286 30.3588 33.6649 28.5793 33.6649C12.8968 33.6649 0.183655 46.3781 0.183655 62.0606C0.183655 76.1306 10.4169 87.8106 23.8467 90.0637V90.4563L123.232 90.4563Z" fill="#E7E5E5"/>
</svg>
