<svg width="147" height="90" viewBox="0 0 147 90" fill="none" xmlns="http://www.w3.org/2000/svg">
<path fill-rule="evenodd" clip-rule="evenodd" d="M123.048 90.0007C136.117 90.0007 146.711 79.4064 146.711 66.3377C146.711 54.3512 137.799 44.4462 126.239 42.8879C122.402 31.7479 111.828 23.7442 99.3849 23.7442C96.0051 23.7442 92.7633 24.3347 89.7569 25.4181C88.2314 11.174 76.1731 0.0810547 61.524 0.0810547C45.8415 0.0810547 33.1283 12.7942 33.1283 28.4767C33.1283 30.2562 33.292 31.9974 33.6051 33.6861C31.9164 33.373 30.1751 33.2093 28.3957 33.2093C12.7132 33.2093 0 45.9225 0 61.605C0 75.6751 10.2333 87.355 23.6631 89.6081V90.0007L123.048 90.0007Z" fill="#F8F8F8"/>
</svg>
