<svg width="264" height="219" viewBox="0 0 264 219" fill="none" xmlns="http://www.w3.org/2000/svg">
<g clip-path="url(#clip0)">
<path fill-rule="evenodd" clip-rule="evenodd" d="M245 219H57H56V218.991C24.9811 218.458 0 193.146 0 162C0 130.52 25.5198 105 57 105C60.3676 105 63.667 105.292 66.8742 105.852C66.3895 102.87 66.1376 99.8089 66.1376 96.6893C66.1376 65.3807 91.5182 40 122.827 40C152.072 40 176.145 62.146 179.191 90.5828C185.193 88.4199 191.665 87.2411 198.413 87.2411C223.278 87.2411 244.405 103.251 252.047 125.525C274.661 128.925 292 148.438 292 172C292 197.957 270.957 219 245 219Z" fill="white"/>
</g>
<defs>
<clipPath id="clip0">
<rect width="264" height="219" fill="white"/>
</clipPath>
</defs>
</svg>
