<svg width="405" height="265" viewBox="0 0 405 265" fill="none" xmlns="http://www.w3.org/2000/svg">
<path fill-rule="evenodd" clip-rule="evenodd" d="M247 264.515C272.931 264.329 293.895 243.25 293.895 217.275C293.895 193.345 276.102 173.571 253.025 170.46C245.364 148.22 224.254 132.241 199.413 132.241C192.665 132.241 186.193 133.42 180.191 135.583C177.145 107.146 153.072 85 123.827 85C92.5182 85 67.1376 110.381 67.1376 141.689C67.1376 145.242 67.4643 148.718 68.0894 152.089C64.718 151.464 61.2418 151.138 57.6893 151.138C26.3807 151.138 1 176.518 1 207.827C1 238.905 26.009 264.143 57 264.512V264.758H247V264.515Z" fill="white"/>
</svg>
