<svg width="294" height="294" viewBox="0 0 294 294" fill="none" xmlns="http://www.w3.org/2000/svg">
<path fill-rule="evenodd" clip-rule="evenodd" d="M247 236.515C272.931 236.329 293.895 215.25 293.895 189.275C293.895 165.345 276.102 145.571 253.025 142.46C245.364 120.22 224.254 104.241 199.413 104.241C192.665 104.241 186.193 105.42 180.191 107.583C177.145 79.146 153.072 57 123.827 57C92.5182 57 67.1376 82.3807 67.1376 113.689C67.1376 117.242 67.4643 120.718 68.0894 124.089C64.718 123.464 61.2418 123.138 57.6893 123.138C26.3807 123.138 1 148.518 1 179.827C1 210.905 26.009 236.143 57 236.512V236.758H247V236.515Z" fill="#F2F2F2"/>
</svg>
